
<svg width="780" height="105" xmlns="http://www.w3.org/2000/svg">
<style>
.enemy { fill: #ff3b3b; }
.player { fill: #00ffd5; }
.bullet { fill: #fff; }
</style>
<rect class="enemy" x="0" y="0" width="12" height="12" /><rect class="enemy" x="15" y="0" width="12" height="12" /><rect class="enemy" x="15" y="45" width="12" height="12" /><rect class="enemy" x="15" y="75" width="12" height="12" /><rect class="enemy" x="30" y="75" width="12" height="12" /><rect class="enemy" x="30" y="90" width="12" height="12" /><rect class="enemy" x="45" y="75" width="12" height="12" /><rect class="enemy" x="60" y="75" width="12" height="12" /><rect class="enemy" x="60" y="90" width="12" height="12" /><rect class="enemy" x="75" y="45" width="12" height="12" /><rect class="enemy" x="75" y="90" width="12" height="12" /><rect class="enemy" x="90" y="15" width="12" height="12" /><rect class="enemy" x="90" y="30" width="12" height="12" /><rect class="enemy" x="105" y="0" width="12" height="12" /><rect class="enemy" x="105" y="15" width="12" height="12" /><rect class="enemy" x="105" y="60" width="12" height="12" /><rect class="enemy" x="105" y="75" width="12" height="12" /><rect class="enemy" x="120" y="30" width="12" height="12" /><rect class="enemy" x="120" y="60" width="12" height="12" /><rect class="enemy" x="120" y="75" width="12" height="12" /><rect class="enemy" x="135" y="0" width="12" height="12" /><rect class="enemy" x="135" y="45" width="12" height="12" /><rect class="enemy" x="135" y="75" width="12" height="12" /><rect class="enemy" x="150" y="30" width="12" height="12" /><rect class="enemy" x="150" y="60" width="12" height="12" /><rect class="enemy" x="150" y="90" width="12" height="12" /><rect class="enemy" x="165" y="0" width="12" height="12" /><rect class="enemy" x="180" y="15" width="12" height="12" /><rect class="enemy" x="180" y="60" width="12" height="12" /><rect class="enemy" x="180" y="75" width="12" height="12" /><rect class="enemy" x="195" y="60" width="12" height="12" /><rect class="enemy" x="195" y="75" width="12" height="12" /><rect class="enemy" x="210" y="15" width="12" height="12" /><rect class="enemy" x="225" y="0" width="12" height="12" /><rect class="enemy" x="225" y="30" width="12" height="12" /><rect class="enemy" x="240" y="0" width="12" height="12" /><rect class="enemy" x="240" y="45" width="12" height="12" /><rect class="enemy" x="255" y="90" width="12" height="12" /><rect class="enemy" x="270" y="0" width="12" height="12" /><rect class="enemy" x="270" y="15" width="12" height="12" /><rect class="enemy" x="270" y="45" width="12" height="12" /><rect class="enemy" x="270" y="75" width="12" height="12" /><rect class="enemy" x="285" y="15" width="12" height="12" /><rect class="enemy" x="300" y="30" width="12" height="12" /><rect class="enemy" x="300" y="60" width="12" height="12" /><rect class="enemy" x="315" y="0" width="12" height="12" /><rect class="enemy" x="315" y="15" width="12" height="12" /><rect class="enemy" x="315" y="30" width="12" height="12" /><rect class="enemy" x="315" y="60" width="12" height="12" /><rect class="enemy" x="315" y="75" width="12" height="12" /><rect class="enemy" x="330" y="15" width="12" height="12" /><rect class="enemy" x="330" y="30" width="12" height="12" /><rect class="enemy" x="330" y="75" width="12" height="12" /><rect class="enemy" x="345" y="15" width="12" height="12" /><rect class="enemy" x="345" y="30" width="12" height="12" /><rect class="enemy" x="345" y="75" width="12" height="12" /><rect class="enemy" x="345" y="90" width="12" height="12" /><rect class="enemy" x="360" y="75" width="12" height="12" /><rect class="enemy" x="375" y="0" width="12" height="12" /><rect class="enemy" x="375" y="15" width="12" height="12" /><rect class="enemy" x="375" y="45" width="12" height="12" /><rect class="enemy" x="375" y="60" width="12" height="12" /><rect class="enemy" x="375" y="75" width="12" height="12" /><rect class="enemy" x="390" y="0" width="12" height="12" /><rect class="enemy" x="390" y="45" width="12" height="12" /><rect class="enemy" x="390" y="75" width="12" height="12" /><rect class="enemy" x="405" y="15" width="12" height="12" /><rect class="enemy" x="405" y="30" width="12" height="12" /><rect class="enemy" x="405" y="60" width="12" height="12" /><rect class="enemy" x="405" y="75" width="12" height="12" /><rect class="enemy" x="420" y="30" width="12" height="12" /><rect class="enemy" x="420" y="60" width="12" height="12" /><rect class="enemy" x="435" y="0" width="12" height="12" /><rect class="enemy" x="435" y="60" width="12" height="12" /><rect class="enemy" x="450" y="0" width="12" height="12" /><rect class="enemy" x="450" y="15" width="12" height="12" /><rect class="enemy" x="465" y="15" width="12" height="12" /><rect class="enemy" x="465" y="45" width="12" height="12" /><rect class="enemy" x="480" y="45" width="12" height="12" /><rect class="enemy" x="480" y="60" width="12" height="12" /><rect class="enemy" x="480" y="75" width="12" height="12" /><rect class="enemy" x="495" y="0" width="12" height="12" /><rect class="enemy" x="495" y="15" width="12" height="12" /><rect class="enemy" x="495" y="30" width="12" height="12" /><rect class="enemy" x="510" y="15" width="12" height="12" /><rect class="enemy" x="510" y="30" width="12" height="12" /><rect class="enemy" x="525" y="15" width="12" height="12" /><rect class="enemy" x="525" y="45" width="12" height="12" /><rect class="enemy" x="525" y="75" width="12" height="12" /><rect class="enemy" x="540" y="30" width="12" height="12" /><rect class="enemy" x="540" y="45" width="12" height="12" /><rect class="enemy" x="540" y="75" width="12" height="12" /><rect class="enemy" x="540" y="90" width="12" height="12" /><rect class="enemy" x="555" y="75" width="12" height="12" /><rect class="enemy" x="570" y="15" width="12" height="12" /><rect class="enemy" x="570" y="90" width="12" height="12" /><rect class="enemy" x="585" y="30" width="12" height="12" /><rect class="enemy" x="585" y="75" width="12" height="12" /><rect class="enemy" x="585" y="90" width="12" height="12" /><rect class="enemy" x="600" y="0" width="12" height="12" /><rect class="enemy" x="600" y="75" width="12" height="12" /><rect class="enemy" x="600" y="90" width="12" height="12" /><rect class="enemy" x="615" y="75" width="12" height="12" /><rect class="enemy" x="630" y="0" width="12" height="12" /><rect class="enemy" x="630" y="15" width="12" height="12" /><rect class="enemy" x="630" y="45" width="12" height="12" /><rect class="enemy" x="630" y="75" width="12" height="12" /><rect class="enemy" x="645" y="45" width="12" height="12" /><rect class="enemy" x="645" y="60" width="12" height="12" /><rect class="enemy" x="660" y="60" width="12" height="12" /><rect class="enemy" x="675" y="30" width="12" height="12" /><rect class="enemy" x="690" y="0" width="12" height="12" /><rect class="enemy" x="705" y="0" width="12" height="12" /><rect class="enemy" x="705" y="15" width="12" height="12" /><rect class="enemy" x="720" y="15" width="12" height="12" /><rect class="enemy" x="720" y="30" width="12" height="12" /><rect class="enemy" x="720" y="45" width="12" height="12" /><rect class="enemy" x="720" y="60" width="12" height="12" /><rect class="enemy" x="720" y="90" width="12" height="12" /><rect class="enemy" x="735" y="75" width="12" height="12" /><rect class="enemy" x="750" y="15" width="12" height="12" /><rect class="enemy" x="750" y="45" width="12" height="12" /><rect class="enemy" x="750" y="60" width="12" height="12" /><rect class="enemy" x="750" y="75" width="12" height="12" /><rect class="enemy" x="765" y="30" width="12" height="12" /><rect class="enemy" x="765" y="45" width="12" height="12" /><rect class="enemy" x="765" y="75" width="12" height="12" />
<polygon class="player" points="
390,95
380,75
400,75
"/>

<rect class="bullet" x="389" y="65" width="2" height="20">
  <animate attributeName="y" values="65;0" dur="1s" repeatCount="indefinite"/>
</rect>
</svg>